<?xml version="1.0" encoding="UTF-8"?>
<svg xmlns="http://www.w3.org/2000/svg" xmlns:xlink="http://www.w3.org/1999/xlink" width="300px" height="166px" viewBox="0 0 299 166" version="1.1">
<g id="surface1">
<path style=" stroke:none;fill-rule:nonzero;fill:rgb(90.196078%,90.196078%,90.196078%);fill-opacity:1;" d="M 190.351562 142.144531 L 25.664062 142.144531 C 23.65625 142.144531 22.03125 140.511719 22.03125 138.5 L 22.03125 42.359375 C 22.03125 40.347656 23.65625 38.714844 25.664062 38.714844 L 190.351562 38.714844 C 192.359375 38.714844 193.984375 40.347656 193.988281 42.359375 L 193.988281 138.5 C 193.984375 140.511719 192.359375 142.140625 190.351562 142.144531 Z M 190.351562 142.144531 "/>
<path style=" stroke:none;fill-rule:nonzero;fill:rgb(80%,80%,80%);fill-opacity:1;" d="M 200.617188 155.601562 L 15.398438 155.601562 L 15.398438 32.707031 C 15.402344 30.460938 17.21875 28.636719 19.460938 28.632812 L 196.554688 28.632812 C 198.796875 28.636719 200.613281 30.460938 200.617188 32.707031 Z M 16.253906 154.742188 L 199.761719 154.742188 L 199.761719 32.707031 C 199.757812 30.933594 198.324219 29.492188 196.554688 29.492188 L 19.460938 29.492188 C 17.691406 29.492188 16.257812 30.933594 16.253906 32.707031 Z M 16.253906 154.742188 "/>
<path style=" stroke:none;fill-rule:nonzero;fill:rgb(90.196078%,90.196078%,90.196078%);fill-opacity:1;" d="M 109.71875 33.996094 C 109.71875 34.941406 108.953125 35.710938 108.007812 35.710938 C 107.0625 35.710938 106.296875 34.941406 106.296875 33.996094 C 106.296875 33.046875 107.0625 32.28125 108.007812 32.28125 C 108.953125 32.28125 109.71875 33.046875 109.71875 33.996094 Z M 109.71875 33.996094 "/>
<path style=" stroke:none;fill-rule:nonzero;fill:rgb(100%,100%,100%);fill-opacity:1;" d="M 149.285156 121.742188 L 66.730469 121.742188 C 64.722656 121.738281 63.097656 120.109375 63.09375 118.097656 L 63.09375 62.761719 C 63.097656 60.75 64.722656 59.121094 66.730469 59.117188 L 149.285156 59.117188 C 151.292969 59.121094 152.917969 60.75 152.921875 62.761719 L 152.921875 118.097656 C 152.917969 120.109375 151.292969 121.738281 149.285156 121.742188 Z M 149.285156 121.742188 "/>
<path style=" stroke:none;fill-rule:nonzero;fill:rgb(80%,80%,80%);fill-opacity:1;" d="M 80.3125 82.707031 C 78.421875 82.707031 76.890625 81.171875 76.890625 79.277344 C 76.890625 77.382812 78.421875 75.84375 80.3125 75.84375 C 82.199219 75.84375 83.734375 77.382812 83.734375 79.277344 C 83.730469 81.171875 82.199219 82.707031 80.3125 82.707031 Z M 80.3125 82.707031 "/>
<path style=" stroke:none;fill-rule:nonzero;fill:rgb(42.352941%,38.823529%,100%);fill-opacity:1;" d="M 80.3125 93.859375 C 78.421875 93.859375 76.890625 92.324219 76.890625 90.429688 C 76.890625 88.535156 78.421875 86.996094 80.3125 86.996094 C 82.199219 86.996094 83.734375 88.535156 83.734375 90.429688 C 83.730469 92.324219 82.199219 93.859375 80.3125 93.859375 Z M 80.3125 93.859375 "/>
<path style=" stroke:none;fill-rule:nonzero;fill:rgb(42.352941%,38.823529%,100%);fill-opacity:1;" d="M 80.3125 105.011719 C 78.421875 105.011719 76.890625 103.476562 76.890625 101.582031 C 76.890625 99.6875 78.421875 98.148438 80.3125 98.148438 C 82.199219 98.148438 83.734375 99.6875 83.734375 101.582031 C 83.730469 103.476562 82.199219 105.011719 80.3125 105.011719 Z M 80.3125 105.011719 "/>
<path style=" stroke:none;fill-rule:nonzero;fill:rgb(80%,80%,80%);fill-opacity:1;" d="M 96.566406 76.488281 C 95.03125 76.488281 93.785156 77.738281 93.785156 79.277344 C 93.785156 80.816406 95.03125 82.066406 96.566406 82.066406 L 136.347656 82.066406 C 137.882812 82.066406 139.128906 80.816406 139.128906 79.277344 C 139.128906 77.738281 137.882812 76.488281 136.347656 76.488281 Z M 96.566406 76.488281 "/>
<path style=" stroke:none;fill-rule:nonzero;fill:rgb(42.352941%,38.823529%,100%);fill-opacity:1;" d="M 96.566406 87.640625 C 95.03125 87.640625 93.785156 88.890625 93.785156 90.429688 C 93.785156 91.96875 95.03125 93.21875 96.566406 93.21875 L 136.347656 93.21875 C 137.882812 93.21875 139.128906 91.96875 139.128906 90.429688 C 139.128906 88.890625 137.882812 87.640625 136.347656 87.640625 Z M 96.566406 87.640625 "/>
<path style=" stroke:none;fill-rule:nonzero;fill:rgb(42.352941%,38.823529%,100%);fill-opacity:1;" d="M 96.566406 98.792969 C 95.03125 98.792969 93.785156 100.042969 93.785156 101.582031 C 93.785156 103.121094 95.03125 104.371094 96.566406 104.371094 L 136.347656 104.371094 C 137.882812 104.371094 139.128906 103.121094 139.128906 101.582031 C 139.128906 100.042969 137.882812 98.792969 136.347656 98.792969 Z M 96.566406 98.792969 "/>
<path style=" stroke:none;fill-rule:nonzero;fill:rgb(100%,72.156863%,72.156863%);fill-opacity:1;" d="M 283.722656 160.992188 L 278.480469 160.90625 L 276.324219 140.582031 L 284.0625 140.710938 Z M 283.722656 160.992188 "/>
<path style=" stroke:none;fill-rule:nonzero;fill:rgb(18.431373%,18.039216%,25.490196%);fill-opacity:1;" d="M 274.761719 159.339844 L 284.871094 159.511719 L 284.765625 165.894531 L 268.285156 165.617188 C 268.34375 162.089844 271.246094 159.28125 274.761719 159.339844 Z M 274.761719 159.339844 "/>
<path style=" stroke:none;fill-rule:nonzero;fill:rgb(100%,72.156863%,72.156863%);fill-opacity:1;" d="M 231.6875 160.945312 L 226.828125 158.972656 L 232.105469 139.230469 L 239.277344 142.144531 Z M 231.6875 160.945312 "/>
<path style=" stroke:none;fill-rule:nonzero;fill:rgb(18.431373%,18.039216%,25.490196%);fill-opacity:1;" d="M 223.917969 156.171875 L 233.292969 159.976562 L 230.902344 165.894531 L 215.625 159.691406 C 216.945312 156.425781 220.65625 154.847656 223.917969 156.171875 Z M 223.917969 156.171875 "/>
<path style=" stroke:none;fill-rule:nonzero;fill:rgb(18.431373%,18.039216%,25.490196%);fill-opacity:1;" d="M 249.214844 84.898438 L 233.816406 125.648438 L 227.398438 153.957031 L 234.246094 157.390625 L 265.46875 96.480469 L 277.019531 157.605469 L 283.863281 157.605469 C 283.863281 157.605469 286.992188 85.105469 282.433594 79.425781 Z M 249.214844 84.898438 "/>
<path style=" stroke:none;fill-rule:nonzero;fill:rgb(42.352941%,38.823529%,100%);fill-opacity:1;" d="M 242.175781 117.429688 C 242.175781 124.101562 236.78125 129.511719 230.125 129.511719 C 223.46875 129.511719 218.074219 124.101562 218.074219 117.429688 C 218.074219 110.753906 223.46875 105.34375 230.125 105.34375 C 236.78125 105.34375 242.175781 110.753906 242.175781 117.429688 Z M 242.175781 117.429688 "/>
<path style=" stroke:none;fill-rule:nonzero;fill:rgb(100%,100%,100%);fill-opacity:1;" d="M 229.121094 122.773438 L 225.296875 117.839844 L 227.519531 116.105469 L 229.332031 118.441406 L 235.449219 111.964844 L 237.496094 113.910156 Z M 229.121094 122.773438 "/>
<path style=" stroke:none;fill-rule:nonzero;fill:rgb(18.431373%,18.039216%,25.490196%);fill-opacity:1;" d="M 270.816406 14.335938 C 270.816406 22.15625 264.496094 28.492188 256.703125 28.492188 C 248.90625 28.492188 242.585938 22.15625 242.585938 14.335938 C 242.585938 6.519531 248.90625 0.183594 256.703125 0.183594 C 264.496094 0.183594 270.816406 6.519531 270.816406 14.335938 Z M 270.816406 14.335938 "/>
<path style=" stroke:none;fill-rule:nonzero;fill:rgb(100%,72.156863%,72.156863%);fill-opacity:1;" d="M 237 110.660156 C 238.21875 110.050781 239.105469 108.933594 239.421875 107.609375 C 239.738281 106.28125 239.457031 104.882812 238.644531 103.789062 L 249.351562 44.363281 L 239.359375 44.230469 L 231.925781 102.996094 C 230.140625 104.515625 229.773438 107.132812 231.066406 109.089844 C 232.363281 111.042969 234.914062 111.71875 237 110.660156 Z M 237 110.660156 "/>
<path style=" stroke:none;fill-rule:nonzero;fill:rgb(100%,72.156863%,72.156863%);fill-opacity:1;" d="M 298.363281 99.054688 C 299.125 97.886719 299.320312 96.433594 298.890625 95.101562 C 298.460938 93.773438 297.453125 92.710938 296.152344 92.214844 L 277.03125 45.640625 C 276.085938 43.335938 274.171875 41.5625 271.804688 40.796875 C 269.4375 40.03125 266.851562 40.347656 264.738281 41.664062 L 290.066406 95.179688 C 289.390625 97.390625 290.445312 99.761719 292.535156 100.738281 C 294.625 101.710938 297.109375 100.992188 298.363281 99.054688 Z M 298.363281 99.054688 "/>
<path style=" stroke:none;fill-rule:nonzero;fill:rgb(100%,72.156863%,72.156863%);fill-opacity:1;" d="M 267.488281 19.671875 C 267.488281 25.488281 262.785156 30.207031 256.980469 30.207031 C 251.179688 30.207031 246.476562 25.488281 246.476562 19.671875 C 246.476562 13.851562 251.179688 9.136719 256.980469 9.136719 C 262.785156 9.136719 267.488281 13.851562 267.488281 19.671875 Z M 267.488281 19.671875 "/>
<path style=" stroke:none;fill-rule:nonzero;fill:rgb(80%,80%,80%);fill-opacity:1;" d="M 244.207031 36.328125 C 250.265625 33.796875 260.726562 31.296875 272.34375 36.746094 C 275.09375 38.03125 277.164062 40.433594 278.039062 43.347656 L 283.007812 60.019531 L 276.59375 66.453125 L 282.582031 79.75 C 282.582031 79.75 259.695312 93.691406 249.429688 85.113281 L 243.226562 63.023438 L 235.101562 60.878906 L 237.871094 44.359375 C 238.46875 40.769531 240.859375 37.734375 244.207031 36.328125 Z M 244.207031 36.328125 "/>
<path style=" stroke:none;fill-rule:nonzero;fill:rgb(18.431373%,18.039216%,25.490196%);fill-opacity:1;" d="M 247.15625 11.878906 C 251.257812 14.390625 255.882812 15.917969 260.671875 16.347656 L 259.246094 14.632812 C 260.285156 15.019531 261.375 15.234375 262.480469 15.277344 C 263.601562 15.308594 264.675781 14.808594 265.367188 13.921875 C 265.933594 13.003906 266.015625 11.863281 265.589844 10.871094 C 265.152344 9.894531 264.476562 9.046875 263.625 8.410156 C 260.554688 5.972656 256.46875 5.242188 252.746094 6.460938 C 251.488281 6.835938 250.363281 7.5625 249.5 8.550781 C 248.632812 9.5625 248.335938 10.941406 248.703125 12.222656 "/>
<path style=" stroke:none;fill-rule:nonzero;fill:rgb(18.431373%,18.039216%,25.490196%);fill-opacity:1;" d="M 245.191406 2.503906 C 245.019531 0.703125 242.816406 -0.40625 241.097656 0.140625 C 239.375 0.683594 238.246094 2.421875 237.902344 4.199219 C 237.570312 5.710938 237.855469 7.292969 238.6875 8.59375 C 239.558594 9.894531 241.105469 10.566406 242.648438 10.3125 C 244.347656 9.949219 245.527344 8.285156 245.867188 6.570312 C 246.203125 4.859375 245.867188 3.09375 245.535156 1.382812 "/>
<path style=" stroke:none;fill-rule:nonzero;fill:rgb(18.431373%,18.039216%,25.490196%);fill-opacity:1;" d="M 274.277344 3.363281 C 274.105469 1.5625 271.90625 0.453125 270.183594 0.996094 C 268.460938 1.542969 267.332031 3.277344 266.992188 5.054688 C 266.660156 6.566406 266.941406 8.148438 267.773438 9.453125 C 268.644531 10.753906 270.191406 11.425781 271.734375 11.171875 C 273.4375 10.808594 274.617188 9.140625 274.953125 7.429688 C 275.289062 5.71875 274.957031 3.953125 274.621094 2.238281 "/>
<path style=" stroke:none;fill-rule:nonzero;fill:rgb(24.705882%,23.921569%,33.72549%);fill-opacity:1;" d="M 203.824219 150.023438 L 196.339844 150.023438 L 196.339844 148.738281 C 196.339844 147.789062 195.574219 147.019531 194.628906 147.019531 L 185.644531 147.019531 C 184.699219 147.019531 183.933594 147.789062 183.933594 148.738281 L 183.933594 150.023438 L 182.652344 150.023438 L 182.652344 148.738281 C 182.652344 147.789062 181.886719 147.019531 180.941406 147.019531 L 171.957031 147.019531 C 171.011719 147.019531 170.246094 147.789062 170.246094 148.738281 L 170.246094 150.023438 L 168.960938 150.023438 L 168.960938 148.738281 C 168.960938 147.789062 168.195312 147.019531 167.25 147.019531 L 158.269531 147.019531 C 157.324219 147.019531 156.558594 147.789062 156.558594 148.738281 L 156.558594 150.023438 L 155.273438 150.023438 L 155.273438 148.738281 C 155.273438 147.789062 154.507812 147.019531 153.5625 147.019531 L 144.582031 147.019531 C 143.636719 147.019531 142.871094 147.789062 142.871094 148.738281 L 142.871094 150.023438 L 141.585938 150.023438 L 141.585938 148.738281 C 141.585938 147.789062 140.820312 147.019531 139.875 147.019531 L 130.894531 147.019531 C 129.949219 147.019531 129.183594 147.789062 129.183594 148.738281 L 129.183594 150.023438 L 127.898438 150.023438 L 127.898438 148.738281 C 127.898438 147.789062 127.132812 147.019531 126.1875 147.019531 L 117.203125 147.019531 C 116.257812 147.019531 115.492188 147.789062 115.492188 148.738281 L 115.492188 150.023438 L 114.210938 150.023438 L 114.210938 148.738281 C 114.210938 147.789062 113.445312 147.019531 112.5 147.019531 L 103.515625 147.019531 C 102.570312 147.019531 101.804688 147.789062 101.804688 148.738281 L 101.804688 150.023438 L 100.523438 150.023438 L 100.523438 148.738281 C 100.523438 147.789062 99.757812 147.019531 98.8125 147.019531 L 89.828125 147.019531 C 88.882812 147.019531 88.117188 147.789062 88.117188 148.738281 L 88.117188 150.023438 L 86.835938 150.023438 L 86.835938 148.738281 C 86.835938 147.789062 86.066406 147.019531 85.121094 147.019531 L 76.140625 147.019531 C 75.195312 147.019531 74.429688 147.789062 74.429688 148.738281 L 74.429688 150.023438 L 73.144531 150.023438 L 73.144531 148.738281 C 73.144531 147.789062 72.378906 147.019531 71.433594 147.019531 L 62.453125 147.019531 C 61.507812 147.019531 60.742188 147.789062 60.742188 148.738281 L 60.742188 150.023438 L 59.457031 150.023438 L 59.457031 148.738281 C 59.457031 147.789062 58.691406 147.019531 57.746094 147.019531 L 48.765625 147.019531 C 47.820312 147.019531 47.054688 147.789062 47.054688 148.738281 L 47.054688 150.023438 L 45.769531 150.023438 L 45.769531 148.738281 C 45.769531 147.789062 45.003906 147.019531 44.058594 147.019531 L 35.074219 147.019531 C 34.128906 147.019531 33.363281 147.789062 33.363281 148.738281 L 33.363281 150.023438 L 32.082031 150.023438 L 32.082031 148.738281 C 32.082031 147.789062 31.316406 147.019531 30.371094 147.019531 L 21.386719 147.019531 C 20.441406 147.019531 19.675781 147.789062 19.675781 148.738281 L 19.675781 150.023438 L 12.191406 150.023438 C 5.457031 150.023438 0 155.496094 0 162.25 C 0 164.261719 1.628906 165.894531 3.636719 165.894531 L 212.378906 165.894531 C 214.386719 165.894531 216.015625 164.261719 216.015625 162.25 C 216.015625 155.496094 210.558594 150.023438 203.824219 150.023438 Z M 203.824219 150.023438 "/>
</g>
</svg>
